# xmcd CD database file
#
# Track frame offsets:
#	150
#	10543
#	23166
#	35481
#	46159
#	56007
#	68693
#	81592
#	92521
#	103776
#	115746
#	127063
#	138252
#	148503
#	160599
#	170638
#	183176
#	194582
#	207696
#	218499
#
# Disc length: 3103 seconds
#
# Revision: 0
# Processed by: cddbd v1.5.2PL0 Copyright (c) Steve Scherf et al.
# Submitted via: CDex 1.70beta2
#
DISCID=170c1d14
DTITLE=Barbara Mandrell - This Time I Almost Made It - The Lost Columbia Masters
DYEAR=2016
DGENRE=Country
TTITLE0=This Time I Almost Made It
TTITLE1=Right Back Feeling Like a Woman
TTITLE2=Wisdom of a Fool
TTITLE3=You're All I Need to Get By
TTITLE4=Wonder When My Baby's Coming Home
TTITLE5=Keep On Singin'
TTITLE6=A Very Special Love Song
TTITLE7=Today I Started Loving You Again
TTITLE8=Kiss the Hurt Away
TTITLE9=Words
TTITLE10=Something
TTITLE11=I Hope You Love Me (Unreleased)
TTITLE12=You Can Always Come Back (Unreleased)
TTITLE13=Coming Home Soldier (Unreleased)
TTITLE14=Stay Til I Get There (Unreleased)
TTITLE15=I Take It Back (Unreleased)
TTITLE16=Dim Lights, Thick Smoke and Loud Music (Unreleased)
TTITLE17=You Took Him Off My Hands (Unreleased)
TTITLE18=Son of a Gun
TTITLE19=Scarlet Water
EXTD=YEAR: 2016
EXTT0=
EXTT1=
EXTT2=
EXTT3=
EXTT4=
EXTT5=
EXTT6=
EXTT7=
EXTT8=
EXTT9=
EXTT10=
EXTT11=
EXTT12=
EXTT13=
EXTT14=
EXTT15=
EXTT16=
EXTT17=
EXTT18=
EXTT19=
PLAYORDER=
